# xmcd
#
# Track frame offsets:
#	150
#	12154
#	27191
#	38486
#	51347
#	64935
#	77670
#	91337
#	102304
#	117650
#	129559
#	143415
#
# Disc length: 2078 seconds
#
# Revision: 1
# Processed by: cddbd v1.5PL3 Copyright (c) Steve Scherf et al.
# Submitted via: EasyCDDAExtractor 7.0.0.1
#
DISCID=98081c0c
DTITLE=Sarah Vaughan - Box Sarah Vaughan
DYEAR=2003
DGENRE=
TTITLE0=Mean to Me
TTITLE1=Lover Man
TTITLE2=Interlude (A Hight in Tunesia)
TTITLE3=East Of The sun (And west To The Moon)
TTITLE4=Aint´t Misbehavin
TTITLE5=Can´t Get Out Of This Mood
TTITLE6=Waht More Can a Woamn Do?
TTITLE7=No Smokes Blues
TTITLE8=Come Rain or Come Shine
TTITLE9=Signing Off
TTITLE10=September Song
TTITLE11=Waht a Diference a Day Makes
EXTD=
EXTT0=
EXTT1=
EXTT2=
EXTT3=
EXTT4=
EXTT5=
EXTT6=
EXTT7=
EXTT8=
EXTT9=
EXTT10=
EXTT11=
PLAYORDER=
